<?xml version="1.0" encoding="UTF-8" standalone="no"?>
<!DOCTYPE svg PUBLIC "-//W3C//DTD SVG 1.1//EN" "http://www.w3.org/Graphics/SVG/1.1/DTD/svg11.dtd">
<svg width="100%" height="100%" viewBox="0 0 32 32" version="1.1" xmlns="http://www.w3.org/2000/svg" xmlns:xlink="http://www.w3.org/1999/xlink" xml:space="preserve" xmlns:serif="http://www.serif.com/" style="fill-rule:evenodd;clip-rule:evenodd;stroke-linejoin:round;stroke-miterlimit:2;">
    <g transform="matrix(1,0,0,1,-3917.59,0)">
        <g id="_32x32-favicon" serif:id="32x32 favicon" transform="matrix(0.03125,0,0,0.03125,3882.46,0)">
            <rect x="1124" y="0" width="1024" height="1024" style="fill:none;"/>
            <g transform="matrix(35.1693,0,0,34.1514,-136710,-36.839)">
                <path d="M3947.37,6.199L3947.37,25.943C3947.37,28.251 3945.55,30.126 3943.3,30.126L3924.13,30.126C3921.89,30.126 3920.07,28.251 3920.07,25.943L3920.07,6.199C3920.07,3.89 3921.89,2.016 3924.13,2.016L3943.3,2.016C3945.55,2.016 3947.37,3.89 3947.37,6.199Z" style="fill:rgb(249,239,218);"/>
            </g>
            <g transform="matrix(5.51026,0,0,5.51026,708.03,-1805.74)">
                <g transform="matrix(168.14,0,0,168.14,112.998,481.166)">
                    <path d="M0.047,-0L0.047,-0.727L0.243,-0.727L0.243,-0.45L0.246,-0.45C0.253,-0.469 0.263,-0.486 0.277,-0.501C0.291,-0.517 0.308,-0.529 0.328,-0.539C0.348,-0.548 0.372,-0.553 0.399,-0.553C0.435,-0.553 0.469,-0.543 0.502,-0.524C0.535,-0.505 0.561,-0.474 0.581,-0.433C0.602,-0.392 0.612,-0.339 0.612,-0.273C0.612,-0.21 0.602,-0.158 0.583,-0.116C0.563,-0.075 0.537,-0.044 0.505,-0.023C0.472,-0.003 0.437,0.007 0.398,0.007C0.372,0.007 0.349,0.003 0.329,-0.006C0.309,-0.014 0.292,-0.025 0.278,-0.04C0.264,-0.055 0.253,-0.071 0.246,-0.089L0.241,-0.089L0.241,-0L0.047,-0ZM0.239,-0.273C0.239,-0.246 0.242,-0.223 0.249,-0.204C0.256,-0.185 0.266,-0.17 0.279,-0.159C0.292,-0.149 0.307,-0.143 0.325,-0.143C0.343,-0.143 0.359,-0.149 0.371,-0.159C0.384,-0.169 0.394,-0.184 0.4,-0.203C0.407,-0.223 0.411,-0.246 0.411,-0.273C0.411,-0.3 0.407,-0.323 0.4,-0.342C0.394,-0.361 0.384,-0.376 0.371,-0.387C0.359,-0.397 0.343,-0.402 0.325,-0.402C0.307,-0.402 0.292,-0.397 0.279,-0.387C0.266,-0.376 0.256,-0.361 0.249,-0.342C0.242,-0.323 0.239,-0.3 0.239,-0.273Z" style="fill:rgb(255,101,47);fill-rule:nonzero;"/>
                </g>
                <g transform="matrix(168.14,0,0,168.14,221.429,481.166)">
                </g>
            </g>
        </g>
    </g>
</svg>
